<?xml version="1.0" encoding="utf-8"?>
<!-- Generator: Adobe Illustrator 16.0.0, SVG Export Plug-In . SVG Version: 6.00 Build 0)  -->
<!DOCTYPE svg PUBLIC "-//W3C//DTD SVG 1.1//EN" "http://www.w3.org/Graphics/SVG/1.1/DTD/svg11.dtd">
<svg version="1.1" id="Layer_1" xmlns="http://www.w3.org/2000/svg" xmlns:xlink="http://www.w3.org/1999/xlink" x="0px" y="0px"
	 width="1280px" height="618.968px" viewBox="0 93.531 1280 618.968" enable-background="new 0 93.531 1280 618.968"
	 xml:space="preserve">
<g>
	<path fill="#2C3E50" d="M19.424,142.034c1.932-0.688,4.005-1.038,6.222-1.038c2.21,0,4.42,0.279,6.638,0.83
		c2.21,0.558,4.005,1.387,5.392,2.489c1.102,1.387,1.795,3.39,2.074,6.015c0.272,2.631,0.343,5.807,0.207,9.541
		c-0.143,3.733-0.486,7.816-1.037,12.236c-0.558,4.427-0.973,9.126-1.244,14.104c-0.279,3.318-0.558,10.234-0.83,20.74
		c-0.279,10.513-0.622,22.814-1.037,36.917c-0.416,14.104-0.83,28.9-1.245,44.384c-0.415,15.491-0.83,29.938-1.245,43.347
		c-0.414,13.417-0.901,24.617-1.452,33.599c-0.558,8.99-0.972,14.039-1.244,15.14c-1.387,3.046-3.876,5.042-7.467,6.015
		c-3.597,0.966-6.085-1.038-7.466-6.015c-0.558-2.488-0.901-5.6-1.038-9.332c-0.142-3.733-0.142-7.603,0-11.614
		c0.137-4.006,0.344-7.74,0.623-11.201c0.272-3.455,0.415-6.287,0.415-8.503c0-1.38-0.072-7.052-0.207-17.006
		c-0.144-9.956-0.279-22.121-0.415-36.502c-0.143-14.376-0.279-29.724-0.416-46.044c-0.142-16.313-0.207-31.454-0.207-45.421
		c0-13.96,0.065-25.718,0.207-35.258c0.137-9.54,0.48-14.583,1.038-15.14C16.24,143.486,17.485,142.728,19.424,142.034z
		 M14.861,119.013c0.271,2.216,0.414,4.563,0.414,7.051c0,1.387,1.174,2.353,3.526,2.903c2.345,0.558,4.977,0.83,7.881,0.83
		c2.903,0,5.601-0.415,8.088-1.245c2.489-0.83,4.006-2.074,4.563-3.733c0.272-1.659,0.551-3.04,0.83-4.147
		c0.272-1.102,0.48-2.075,0.622-2.904c0.136-0.83,0.208-1.795,0.208-2.904c0-1.102,0-2.625,0-4.563c0-1.932-1.315-3.384-3.941-4.356
		c-2.631-0.966-5.464-1.38-8.503-1.244c-3.046,0.143-5.95,0.693-8.711,1.659c-2.767,0.972-4.29,2.282-4.563,3.941
		C14.719,113.899,14.582,116.802,14.861,119.013z"/>
	<path fill="#2C3E50" d="M86.203,106.983c0,0.279-0.071,1.244-0.207,2.903c-0.143,1.659-0.35,3.39-0.622,5.186
		c-0.279,1.802-0.414,3.461-0.414,4.978c0,1.523,0.271,2.282,0.829,2.282c0.829,0.279,1.867-0.48,3.111-2.282
		c1.245-1.795,3.11-3.94,5.599-6.429c2.489-2.489,5.736-4.771,9.748-6.844c4.006-2.074,8.918-3.247,14.726-3.526
		c7.467-0.272,14.104,0.622,19.911,2.696c5.808,2.074,10.993,4.913,15.555,8.503c4.563,3.598,8.432,7.816,11.615,12.651
		c3.176,4.842,5.872,9.891,8.088,15.141c2.21-4.978,4.355-9.677,6.429-14.103c2.074-4.42,4.627-8.432,7.674-12.029
		c3.04-3.591,6.909-6.495,11.614-8.711c4.699-2.21,10.921-3.591,18.667-4.148c10.506-0.551,18.938,1.179,25.303,5.185
		c6.357,4.012,11.406,9.125,15.14,15.348c3.733,6.222,6.494,13.001,8.296,20.325c1.795,7.331,3.525,14.175,5.185,20.533
		c1.381,5.807,3.04,14.797,4.978,26.962c1.931,12.172,3.94,25.653,6.014,40.444c2.074,14.796,4.148,30.145,6.223,46.043
		c2.074,15.906,3.869,30.423,5.392,43.554c1.516,13.138,2.761,24.059,3.733,32.77c0.966,8.71,1.452,13.345,1.452,13.896
		c0,3.875-0.901,6.501-2.696,7.881c-1.802,1.388-3.94,1.867-6.429,1.453c-2.489-0.415-4.842-1.381-7.052-2.904
		c-2.216-1.516-3.461-3.248-3.734-5.185c-0.278-1.101-0.901-6.15-1.867-15.14c-0.972-8.983-2.145-20.118-3.525-33.392
		c-1.387-13.274-2.904-27.721-4.563-43.347c-1.66-15.62-3.461-30.695-5.392-45.213c-1.938-14.519-3.876-27.649-5.808-39.407
		c-1.938-11.75-3.733-20.39-5.393-25.925c-1.387-4.42-2.903-9.19-4.563-14.311c-1.659-5.114-3.597-9.956-5.808-14.518
		c-2.216-4.563-4.912-8.432-8.088-11.615c-3.183-3.176-6.987-4.906-11.408-5.185c-7.194-0.272-13.001,0.83-17.422,3.318
		c-4.426,2.489-7.953,5.95-10.577,10.37c-2.631,4.427-4.563,9.749-5.807,15.97c-1.245,6.222-2.009,12.93-2.282,20.118
		c-1.387,23.229-2.145,42.453-2.281,57.658c-0.143,15.211-0.207,27.376-0.207,36.503c0,9.125,0.064,15.969,0.207,20.532
		c0.136,4.563,0.065,7.816-0.207,9.748c-0.558,2.216-1.938,3.94-4.148,5.185c-2.216,1.245-4.634,2.009-7.259,2.282
		c-2.632,0.279-5.049-0.136-7.259-1.244c-2.217-1.102-3.318-3.176-3.318-6.223c-0.279-8.295-0.143-17.629,0.415-27.999
		c0.551-10.37,1.037-21.22,1.451-32.563c0.416-11.335,0.552-22.743,0.416-34.221c-0.143-11.472-1.18-22.464-3.111-32.977
		c-0.83-4.42-2.281-9.333-4.355-14.726c-2.075-5.392-4.706-10.435-7.882-15.14c-3.182-4.699-6.986-8.64-11.407-11.822
		c-4.426-3.176-9.268-4.771-14.519-4.771c-7.194-0.272-13.066,0.83-17.629,3.318c-4.563,2.489-8.23,6.015-10.992,10.578
		c-2.768,4.563-4.842,9.891-6.222,15.97c-1.387,6.086-2.354,12.723-2.904,19.911c-2.216,27.376-3.46,52.958-3.733,76.739
		c-0.279,23.786-0.142,44.663,0.416,62.635c0.55,17.979,1.102,32.633,1.66,43.969c0.55,11.343,0.687,17.979,0.414,19.911
		c-0.558,2.216-2.009,3.94-4.356,5.185c-2.353,1.244-4.912,2.009-7.673,2.282c-2.768,0.278-5.185-0.138-7.26-1.245
		c-2.074-1.103-2.975-3.176-2.696-6.223l2.489-265.889c0-1.66,0.965-2.904,2.904-3.733c1.932-0.83,4.076-1.245,6.43-1.245
		c2.346,0,4.627,0.35,6.844,1.037C84.265,105.395,85.646,106.154,86.203,106.983z"/>
	<path fill="#2C3E50" d="M345.038,128.968c-3.875,0-6.78-1.037-8.711-3.11c-1.938-2.074-2.903-4.356-2.903-6.844
		c0-2.489,0.965-4.907,2.903-7.259c1.932-2.346,4.836-3.798,8.711-4.355c3.59-0.551,9.397-1.037,17.422-1.452
		c8.018-0.415,16.313-0.415,24.888,0c8.568,0.415,16.449,1.523,23.644,3.318c7.188,1.802,11.887,4.498,14.104,8.089
		c3.59,6.365,6.493,16.249,8.711,29.659c2.21,13.416,3.869,28.621,4.978,45.628c1.101,17.007,1.794,34.986,2.073,53.924
		c0.273,18.945,0.273,36.989,0,54.132c-0.279,17.149-0.558,32.562-0.83,46.25c-0.277,13.689-0.414,23.716-0.414,30.074
		c0,2.489-1.18,4.218-3.525,5.184c-2.354,0.973-4.843,1.316-7.467,1.037c-2.63-0.271-5.048-0.965-7.259-2.074
		c-2.216-1.101-3.182-2.489-2.903-4.147c0.552-3.591,0.895-6.358,1.037-8.296c0.135-1.932-0.901-3.591-3.111-4.978
		c-0.828-0.271-4.012,0.694-9.54,2.904c-5.536,2.216-12.237,4.497-20.119,6.844c-7.881,2.353-16.248,4.148-25.096,5.393
		c-8.853,1.245-17.007,0.622-24.473-1.867c-7.467-2.489-13.624-7.532-18.459-15.141c-4.841-7.603-6.987-19.01-6.429-34.221
		c0.272-11.057,2.969-19.704,8.089-25.926c5.113-6.221,11.336-10.713,18.667-13.481c7.323-2.761,15.347-4.283,24.059-4.562
		c8.71-0.272,16.935-0.064,24.681,0.622c7.739,0.693,14.376,1.523,19.909,2.489c5.53,0.972,8.849,1.179,9.956,0.622
		c1.103-0.272,1.932-3.941,2.489-10.992c0.552-7.053,0.831-15.763,0.831-26.133s-0.279-21.635-0.831-33.806
		c-0.557-12.166-1.315-23.78-2.281-34.844c-0.972-11.057-2.146-20.74-3.525-29.037c-1.388-8.296-3.046-13.546-4.978-15.762
		c-2.768-3.591-6.916-6.015-12.445-7.259c-5.535-1.245-11.478-1.932-17.836-2.074c-6.364-0.137-12.651,0.071-18.874,0.622
		C353.957,128.696,348.907,128.968,345.038,128.968z M417.214,311.067c-1.109-0.552-3.877-1.453-8.297-2.697
		c-4.426-1.244-9.681-2.345-15.762-3.317c-6.086-0.965-12.516-1.588-19.289-1.867c-6.779-0.272-13.001,0.207-18.667,1.452
		c-5.671,1.245-10.37,3.461-14.103,6.637c-3.733,3.183-5.6,7.674-5.6,13.481c0,9.955,2.003,17.357,6.014,22.191
		c4.006,4.842,9.055,7.953,15.141,9.334c6.079,1.386,12.651,1.452,19.703,0.207s13.688-3.04,19.911-5.393
		c6.222-2.346,11.544-4.698,15.97-7.051c4.42-2.347,6.909-4.077,7.467-5.186c0.829-1.659,1.515-3.797,2.073-6.429
		c0.552-2.625,0.687-5.392,0.417-8.296c-0.279-2.904-0.766-5.528-1.453-7.881C420.047,313.906,418.873,312.175,417.214,311.067z"/>
	<path fill="#2C3E50" d="M488.556,380.755c-8.297-1.66-13.625-4.978-15.97-9.956c-2.354-4.978-3.111-10.37-2.283-16.177
		c0.83-5.807,2.348-11.543,4.563-17.214c2.21-5.665,3.59-9.885,4.148-12.652c-4.978-4.42-7.673-8.64-8.089-12.652
		c-0.414-4.005,0-7.602,1.245-10.784c1.245-3.176,2.762-5.735,4.564-7.674c1.796-1.932,2.418-3.176,1.867-3.733
		c-4.978-5.25-9.061-12.581-12.237-21.985c-3.182-9.398-5.536-19.768-7.051-31.11c-1.523-11.335-2.283-23.086-2.283-35.258
		c0-12.165,0.76-23.644,2.283-34.429c1.515-10.785,3.731-20.183,6.636-28.207c2.903-8.018,6.429-13.688,10.576-17.007
		c5.809-4.698,13.619-8.568,23.438-11.614c9.813-3.04,20.183-4.907,31.11-5.6c10.921-0.687,21.57,0.143,31.94,2.489
		c10.37,2.353,18.874,6.708,25.51,13.066c0.828,0.83,2.002,0.558,3.525-0.829c1.517-1.38,3.041-3.04,4.563-4.978
		c1.516-1.931,2.903-3.797,4.148-5.6c1.245-1.795,2.137-2.696,2.695-2.696c0.831,0,2.14,0.557,3.941,1.659
		c1.794,1.108,3.661,2.489,5.601,4.148c1.931,1.659,3.661,3.46,5.184,5.392c1.517,1.938,2.281,3.461,2.281,4.563
		c0,0.83-0.972,1.938-2.903,3.319c-1.938,1.387-4.012,2.768-6.222,4.148c-2.216,1.387-4.354,2.767-6.429,4.147
		c-2.075,1.387-3.254,2.631-3.525,3.733c-0.279,0.557-0.144,3.597,0.414,9.125c0.552,5.535,1.245,12.516,2.075,20.948
		c0.829,8.438,1.516,17.771,2.073,27.999c0.551,10.234,0.687,20.468,0.416,30.695c-0.279,10.234-1.317,19.846-3.111,28.829
		c-1.802,8.99-4.634,16.384-8.503,22.192c-4.978,7.194-11.479,12.651-19.496,16.385c-8.024,3.733-16.457,6.293-25.304,7.673
		c-8.853,1.388-17.421,2.01-25.718,1.867c-8.295-0.135-15.211-0.479-20.74-1.036c-4.147,4.978-5.257,8.367-3.317,10.162
		c1.932,1.802,5.736,2.697,11.407,2.697c5.665,0,12.443-0.481,20.326-1.453c7.881-0.966,15.689-1.588,23.436-1.867
		c7.74-0.271,14.791,0.072,21.154,1.038c6.36,0.973,10.786,3.389,13.275,7.259c1.932,3.318,3.455,7.745,4.562,13.274
		c1.103,5.535,1.588,11.2,1.453,17.007c-0.144,5.808-0.972,11.063-2.489,15.762c-1.523,4.706-4.083,7.746-7.673,9.125
		c-6.366,2.489-14.104,4.356-23.229,5.601c-9.125,1.244-18.459,2.009-28.001,2.281c-9.54,0.279-18.458,0.208-26.755-0.206
		C499.341,382.205,492.976,381.583,488.556,380.755z M493.118,138.094c-3.875,4.706-6.986,10.928-9.333,18.666
		c-2.352,7.746-4.083,16.178-5.184,25.303c-1.109,9.125-1.523,18.53-1.245,28.207c0.272,9.683,1.101,18.738,2.489,27.17
		c1.38,8.438,3.247,15.97,5.601,22.607c2.345,6.637,5.321,11.343,8.917,14.104c4.699,3.875,10.921,6.429,18.665,7.674
		c7.74,1.245,15.829,1.245,24.268,0c8.431-1.245,16.449-3.663,24.058-7.259c7.603-3.591,13.754-8.297,18.459-14.104
		c1.38-1.932,2.697-5.943,3.941-12.029c1.245-6.08,2.137-13.274,2.695-21.569c0.552-8.296,0.76-17.215,0.623-26.755
		c-0.142-9.541-0.693-18.595-1.659-27.169c-0.972-8.569-2.489-16.242-4.564-23.021c-2.073-6.773-4.632-11.543-7.673-14.311
		c-4.705-4.148-10.928-7.116-18.667-8.918c-7.744-1.795-15.625-2.488-23.643-2.074c-8.023,0.415-15.49,1.73-22.399,3.94
		C501.551,130.77,496.437,133.946,493.118,138.094z M497.682,337.615c-4.15,3.597-6.572,8.088-7.259,13.48
		c-0.695,5.393,0.893,8.782,4.77,10.164c3.317,1.107,8.568,1.801,15.762,2.073c7.188,0.279,14.726,0.208,22.607-0.207
		c7.881-0.416,15.205-1.102,21.985-2.074c6.772-0.965,11.406-2.139,13.896-3.525c2.489-1.66,4.285-3.663,5.392-6.016
		c1.103-2.347,1.725-4.77,1.867-7.259c0.137-2.489-0.208-4.627-1.037-6.43c-0.83-1.795-2.075-2.968-3.733-3.525
		c-2.216-0.551-6.916-1.102-14.104-1.66c-7.194-0.55-14.867-0.758-23.021-0.622c-8.16,0.143-15.835,0.622-23.021,1.452
		C504.589,334.296,499.892,335.682,497.682,337.615z"/>
	<path fill="#2C3E50" d="M634.978,142.034c1.932-0.688,4.004-1.038,6.221-1.038c2.21,0,4.42,0.279,6.639,0.83
		c2.21,0.558,4.004,1.387,5.392,2.489c1.102,1.387,1.794,3.39,2.073,6.015c0.272,2.631,0.343,5.807,0.208,9.541
		c-0.144,3.733-0.487,7.816-1.036,12.236c-0.558,4.427-0.974,9.126-1.245,14.104c-0.278,3.318-0.558,10.234-0.83,20.74
		c-0.279,10.513-0.622,22.814-1.036,36.917c-0.416,14.104-0.831,28.9-1.245,44.384c-0.416,15.491-0.83,29.938-1.244,43.347
		c-0.414,13.417-0.901,24.617-1.452,33.599c-0.558,8.99-0.972,14.039-1.245,15.14c-1.386,3.046-3.875,5.042-7.467,6.015
		c-3.596,0.966-6.085-1.038-7.465-6.015c-0.558-2.488-0.901-5.6-1.039-9.332c-0.141-3.733-0.141-7.603,0-11.614
		c0.138-4.006,0.344-7.74,0.623-11.201c0.272-3.455,0.416-6.287,0.416-8.503c0-1.38-0.073-7.052-0.208-17.006
		c-0.144-9.956-0.279-22.121-0.414-36.502c-0.144-14.376-0.279-29.724-0.417-46.044c-0.141-16.313-0.206-31.454-0.206-45.421
		c0-13.96,0.065-25.718,0.206-35.258c0.138-9.54,0.481-14.583,1.039-15.14C631.794,143.486,633.038,142.728,634.978,142.034z
		 M630.414,119.013c0.273,2.216,0.415,4.563,0.415,7.051c0,1.387,1.174,2.353,3.527,2.903c2.345,0.558,4.976,0.83,7.881,0.83
		c2.903,0,5.601-0.415,8.087-1.245c2.489-0.83,4.007-2.074,4.564-3.733c0.272-1.659,0.552-3.04,0.83-4.147
		c0.271-1.102,0.479-2.075,0.622-2.904c0.136-0.83,0.206-1.795,0.206-2.904c0-1.102,0-2.625,0-4.563
		c0-1.932-1.315-3.384-3.939-4.356c-2.632-0.966-5.465-1.38-8.503-1.244c-3.047,0.143-5.95,0.693-8.712,1.659
		c-2.768,0.972-4.291,2.282-4.563,3.941C630.273,113.899,630.135,116.802,630.414,119.013z"/>
	<path fill="#2C3E50" d="M678.113,109.886c0-1.102,0.831-1.931,2.489-2.488c1.658-0.551,3.525-0.83,5.601-0.83
		c2.074,0,4.147,0.279,6.222,0.83c2.073,0.557,3.799,1.387,5.185,2.488c1.103,1.109,1.517,3.461,1.244,7.052
		c-0.278,3.597-0.692,7.402-1.244,11.407c-0.558,4.012-0.901,7.609-1.036,10.785c-0.144,3.182,0.343,5.049,1.452,5.6
		c1.38-0.551,3.455-2.761,6.221-6.637c2.762-3.87,6.359-8.017,10.786-12.444c4.42-4.42,9.604-8.503,15.554-12.236
		c5.944-3.733,12.789-5.6,20.534-5.6c12.716,0,22.813,2.282,30.28,6.844c7.467,4.563,13.273,10.306,17.421,17.214
		c4.149,6.916,6.909,14.382,8.297,22.399c1.38,8.024,2.489,15.211,3.317,21.57c0.552,4.427,1.174,12.101,1.867,23.021
		c0.687,10.928,1.517,23.372,2.488,37.333c0.966,13.967,1.932,28.693,2.903,44.176c0.968,15.491,1.796,29.866,2.489,43.14
		c0.687,13.274,1.31,24.616,1.866,34.015c0.552,9.404,0.966,15.075,1.245,17.006c0.272,3.047-0.693,5.12-2.903,6.223
		c-2.216,1.107-4.635,1.522-7.259,1.245c-2.633-0.273-5.187-1.039-7.673-2.282c-2.489-1.245-3.877-2.969-4.149-5.185
		c-0.558-1.931-1.037-8.296-1.451-19.082c-0.416-10.784-1.038-24.952-1.866-42.517c-0.831-17.558-2.011-37.955-3.525-61.184
		c-1.523-23.229-3.391-48.532-5.601-75.909c-1.388-14.375-4.978-25.646-10.786-33.806c-5.807-8.154-14.381-11.958-25.716-11.408
		c-9.126,0.558-16.736,3.319-22.815,8.296c-6.085,4.978-10.928,10.785-14.518,17.422c-3.599,6.637-6.366,13.481-8.298,20.533
		c-1.937,7.052-3.316,12.794-4.147,17.214c-1.658,7.194-2.838,16.113-3.525,26.755c-0.692,10.649-1.18,22.056-1.452,34.222
		c-0.279,12.171-0.35,24.616-0.206,37.332c0.135,12.723,0.271,24.751,0.414,36.087c0.136,11.343,0.208,21.57,0.208,30.696
		c0,9.126-0.144,16.178-0.416,21.155c0,1.661-0.901,3.046-2.695,4.148c-1.802,1.102-3.877,1.795-6.223,2.074
		c-2.354,0.273-4.563-0.071-6.637-1.036c-2.074-0.972-3.39-2.697-3.941-5.186c-0.278-1.101-0.558-5.457-0.828-13.065
		c-0.278-7.602-0.487-17.351-0.622-29.244c-0.144-11.887-0.208-25.369-0.208-40.444c0-15.069-0.071-30.553-0.208-46.458
		c-0.142-15.899-0.142-31.661,0-47.288c0.137-15.62,0.272-29.866,0.416-42.724c0.135-12.859,0.344-23.852,0.622-32.977
		C677.555,119.013,677.834,112.933,678.113,109.886z"/>
	<path fill="#2C3E50" d="M868.924,128.968c-3.877,0-6.78-1.037-8.711-3.11c-1.938-2.074-2.903-4.356-2.903-6.844
		c0-2.489,0.966-4.907,2.903-7.259c1.931-2.346,4.834-3.798,8.711-4.355c3.59-0.551,9.396-1.037,17.421-1.452
		c8.019-0.415,16.313-0.415,24.888,0c8.568,0.415,16.451,1.523,23.646,3.318c7.187,1.802,11.886,4.498,14.102,8.089
		c3.592,6.365,6.495,16.249,8.711,29.659c2.211,13.416,3.869,28.621,4.979,45.628c1.101,17.007,1.796,34.986,2.075,53.924
		c0.271,18.945,0.271,36.989,0,54.132c-0.279,17.149-0.559,32.562-0.831,46.25c-0.278,13.689-0.414,23.716-0.414,30.074
		c0,2.489-1.18,4.218-3.527,5.184c-2.352,0.973-4.841,1.316-7.465,1.037c-2.633-0.271-5.049-0.965-7.259-2.074
		c-2.219-1.101-3.184-2.489-2.905-4.147c0.552-3.591,0.896-6.358,1.038-8.296c0.136-1.932-0.9-3.591-3.111-4.978
		c-0.83-0.271-4.012,0.694-9.541,2.904c-5.534,2.216-12.237,4.497-20.118,6.844c-7.881,2.353-16.247,4.148-25.096,5.393
		c-8.854,1.245-17.007,0.622-24.472-1.867c-7.467-2.489-13.625-7.532-18.46-15.141c-4.842-7.603-6.987-19.01-6.43-34.221
		c0.272-11.057,2.97-19.704,8.089-25.926c5.113-6.221,11.336-10.713,18.667-13.481c7.324-2.761,15.347-4.283,24.058-4.562
		c8.712-0.272,16.937-0.064,24.682,0.622c7.738,0.693,14.375,1.523,19.91,2.489c5.529,0.972,8.847,1.179,9.956,0.622
		c1.101-0.272,1.932-3.941,2.489-10.992c0.549-7.053,0.828-15.763,0.828-26.133s-0.279-21.635-0.828-33.806
		c-0.558-12.166-1.317-23.78-2.283-34.844c-0.972-11.057-2.146-20.74-3.525-29.037c-1.386-8.296-3.047-13.546-4.979-15.762
		c-2.768-3.591-6.915-6.015-12.442-7.259c-5.536-1.245-11.479-1.932-17.837-2.074c-6.364-0.137-12.651,0.071-18.874,0.622
		C877.842,128.696,872.793,128.968,868.924,128.968z M941.099,311.067c-1.107-0.552-3.875-1.453-8.296-2.697
		c-4.426-1.244-9.683-2.345-15.762-3.317c-6.087-0.965-12.516-1.588-19.29-1.867c-6.778-0.272-13,0.207-18.665,1.452
		c-5.671,1.245-10.37,3.461-14.104,6.637c-3.733,3.183-5.601,7.674-5.601,13.481c0,9.955,2.004,17.357,6.015,22.191
		c4.006,4.842,9.055,7.953,15.142,9.334c6.079,1.386,12.651,1.452,19.702,0.207c7.053-1.245,13.689-3.04,19.912-5.393
		c6.223-2.346,11.542-4.698,15.97-7.051c4.419-2.347,6.907-4.077,7.465-5.186c0.831-1.659,1.518-3.797,2.075-6.429
		c0.552-2.625,0.687-5.392,0.414-8.296c-0.278-2.904-0.764-5.528-1.45-7.881C943.931,313.906,942.759,312.175,941.099,311.067z"/>
	<path fill="#2C3E50" d="M986.309,112.79c-0.279-2.488,0.135-4.42,1.244-5.807c1.101-1.38,2.554-2.417,4.355-3.111
		c1.794-0.688,3.733-1.173,5.807-1.452c2.074-0.272,4.214-0.687,6.431-1.245c1.38-0.271,4.905-0.622,10.576-1.037
		c5.664-0.415,12.374-0.207,20.118,0.622c7.739,0.83,15.97,2.768,24.682,5.808c8.711,3.046,16.592,7.953,23.643,14.726
		c7.053,6.779,12.789,15.833,17.215,27.169c4.421,11.342,6.357,25.718,5.807,43.14c-0.828,19.359-3.389,35.401-7.673,48.117
		c-4.292,12.723-9.748,23.093-16.385,31.111c-6.637,8.023-14.039,14.039-22.192,18.043c-8.16,4.012-16.25,6.845-24.266,8.503
		c-1.938,0.558-2.697,1.109-2.281,1.66c0.414,0.558,1.172,1.108,2.281,1.66c16.035,8.853,30.073,16.176,42.103,21.985
		c12.028,5.806,19.146,9.404,21.362,10.784c1.932,1.388,2.832,3.526,2.697,6.43c-0.144,2.903-0.901,5.671-2.283,8.295
		c-1.386,2.631-3.317,4.705-5.807,6.223c-2.488,1.523-4.978,1.73-7.467,0.622c-1.658-0.551-5.184-2.625-10.578-6.222
		c-5.393-3.59-11.686-7.881-18.873-12.859c-7.194-4.978-14.867-10.298-23.021-15.97c-8.16-5.665-15.833-10.992-23.021-15.969
		c-1.389-1.381-2.354-1.932-2.903-1.66c-0.558,0.279-0.974,0.558-1.245,0.83c-0.83,0.83-1.388,4.77-1.66,11.822
		c-0.279,7.052-0.558,14.796-0.828,23.228c-0.279,8.439-0.558,16.458-0.831,24.06c-0.278,7.608-0.83,12.237-1.658,13.896
		c-1.388,3.598-3.877,5.743-7.467,6.431c-3.599,0.693-6.085-0.481-7.467-3.526c-0.829-1.66-1.451-5.114-1.867-10.37
		c-0.414-5.25-0.693-13.131-0.828-23.645c-0.144-10.505-0.073-23.916,0.206-40.236c0.272-16.313,0.687-36.36,1.244-60.146
		c0.272-14.933,0.552-29.659,0.831-44.177c0.272-14.518,0.414-27.856,0.414-40.028c0-12.166,0-22.536,0-31.11
		C986.723,120.814,986.581,115.28,986.309,112.79z M1003.315,132.701c0,0.829,0.065,4.705,0.208,11.614
		c0.136,6.916,0.271,15.348,0.415,25.303c0.135,9.955,0.272,20.74,0.414,32.354c0.137,11.615,0.343,22.335,0.622,32.147
		c0.272,9.819,0.48,18.115,0.622,24.888c0.138,6.78,0.208,10.441,0.208,10.992c0,0.831,0.064,1.938,0.208,3.319
		c0.136,1.386,0.414,2.63,0.828,3.733c0.417,1.107,1.174,2.073,2.283,2.903c1.102,0.829,2.76,1.108,4.976,0.829
		c1.382,0,4.215-0.271,8.504-0.829c4.285-0.552,9.126-1.66,14.52-3.319c5.392-1.659,11.128-4.283,17.213-7.881
		c6.081-3.59,11.614-8.503,16.593-14.726c4.978-6.222,9.125-14.032,12.444-23.436c3.317-9.398,5.113-21.013,5.393-34.844
		c0-13.824-1.523-25.096-4.563-33.807c-3.045-8.711-7.122-15.62-12.235-20.74c-5.121-5.114-10.649-8.776-16.593-10.993
		c-5.949-2.21-11.758-3.59-17.423-4.148c-5.671-0.551-10.784-0.623-15.348-0.207c-4.562,0.415-7.673,0.622-9.332,0.622
		c-5.535,0-8.576,0.486-9.125,1.452C1003.588,128.903,1003.315,130.491,1003.315,132.701z"/>
	<path fill="#2C3E50" d="M1109.503,118.597c-1.102-3.318-0.894-6.357,0.622-9.125c1.518-2.761,3.592-4.835,6.223-6.222
		c2.624-1.38,5.392-1.867,8.295-1.452c2.905,0.415,5.043,2.146,6.431,5.185c0.83,2.217,2.695,7.816,5.601,16.8
		c2.902,8.989,6.222,19.703,9.953,32.147c3.734,12.444,7.604,25.581,11.615,39.406c4.006,13.831,7.739,26.547,11.2,38.162
		c3.454,11.615,7.394,25.031,11.822,40.236c4.699-14.933,8.847-28.064,12.443-39.406c3.592-11.336,7.531-23.852,11.822-37.54
		c4.283-13.689,8.433-26.755,12.443-39.199c4.006-12.444,7.467-23.501,10.37-33.185c2.905-9.677,4.907-16.178,6.016-19.496
		c1.381-4.978,3.455-8.296,6.221-9.956c2.762-1.659,5.322-1.867,7.676-0.622c2.346,1.244,4.282,3.597,5.806,7.052
		c1.518,3.461,1.726,7.674,0.622,12.651c-0.828,3.318-2.974,10.098-6.428,20.325c-3.461,10.234-7.538,22.192-12.237,35.881
		c-4.705,13.688-9.818,27.999-15.348,42.932c-5.536,14.933-10.514,28.764-14.933,41.48c-4.428,12.724-8.159,23.372-11.2,31.94
		c-3.046,8.574-4.427,13.273-4.147,14.104c0.271,1.108,0.479,5.049,0.622,11.822c0.136,6.779,0.344,14.175,0.622,22.191
		c0.271,8.025,0.479,15.698,0.623,23.022c0.135,7.331,0.205,12.236,0.205,14.725s-1.036,4.634-3.111,6.431
		c-2.072,1.801-4.354,2.903-6.842,3.317c-2.489,0.416-4.843-0.136-7.053-1.659c-2.217-1.518-3.461-4.491-3.734-8.917
		c-0.278-4.42-0.414-10.299-0.414-17.63c0-7.324,0-14.583,0-21.777c0-7.187,0.065-13.617,0.209-19.288
		c0.135-5.665,0.205-8.918,0.205-9.748c0-0.551-1.45-5.186-4.355-13.896c-2.902-8.71-6.499-19.56-10.784-32.562
		c-4.291-12.995-9.061-27.099-14.31-42.31c-5.257-15.206-10.164-29.516-14.726-42.932c-4.563-13.41-8.503-25.025-11.823-34.844
		C1112.406,126.829,1110.333,120.814,1109.503,118.597z"/>
</g>
<g>
	<path fill="#C0392B" d="M8.227,706.468v-280.83h98.368c34.073,0,59.919,6.527,77.537,19.577
		c17.616,13.052,26.425,32.18,26.425,57.381c0,13.76-3.539,25.879-10.609,36.358c-7.073,10.48-16.91,18.163-29.511,23.048
		c14.399,3.602,25.749,10.868,34.043,21.796c8.294,10.931,12.44,24.302,12.44,40.119c0,27.003-8.616,47.447-25.846,61.334
		c-17.232,13.888-41.791,20.961-73.679,21.217H8.227z M66.091,543.293h42.819c29.188-0.512,43.784-12.151,43.784-34.911
		c0-12.729-3.698-21.892-11.091-27.484c-7.396-5.594-19.065-8.391-35.008-8.391H66.091V543.293z M66.091,584.183v75.801h49.57
		c13.628,0,24.27-3.245,31.922-9.74c7.648-6.491,11.476-15.461,11.476-26.906c0-25.716-13.309-38.77-39.926-39.154H66.091z"/>
	<path fill="#C0392B" d="M364.28,603.664h-46.098v102.804h-57.864v-280.83h104.348c33.175,0,58.762,7.395,76.767,22.181
		c18.001,14.788,27.003,35.683,27.003,62.686c0,19.162-4.148,35.137-12.441,47.931c-8.295,12.796-20.866,22.985-37.708,30.57
		l60.756,114.764v2.699h-62.105L364.28,603.664z M318.182,556.795h46.677c14.529,0,25.78-3.695,33.754-11.091
		c7.972-7.393,11.958-17.582,11.958-30.571c0-13.242-3.762-23.657-11.283-31.246c-7.522-7.586-19.065-11.38-34.622-11.38h-46.484
		V556.795z"/>
	<path fill="#C0392B" d="M670.957,648.604H569.503l-19.288,57.863h-61.528l104.54-280.83h53.62l105.119,280.83h-61.527
		L670.957,648.604z M585.127,601.735h70.207l-35.296-105.118L585.127,601.735z"/>
	<path fill="#C0392B" d="M1006.566,706.468h-57.862L836.063,521.69v184.777h-57.863v-280.83h57.863l112.832,185.163V425.637h57.671
		V706.468z"/>
	<path fill="#C0392B" d="M1057.101,706.468v-280.83h86.409c24.688,0,46.771,5.563,66.253,16.683
		c19.481,11.124,34.685,26.94,45.616,47.449c10.928,20.512,16.395,43.816,16.395,69.918v12.923c0,26.105-5.37,49.314-16.105,69.629
		c-10.738,20.319-25.878,36.068-45.422,47.256c-19.549,11.187-41.6,16.847-66.158,16.973H1057.101z M1114.963,472.507v187.478
		h27.967c22.632,0,39.928-7.393,51.885-22.181c11.959-14.785,18.064-35.938,18.324-63.457v-14.852
		c0-28.547-5.917-50.179-17.746-64.903c-11.83-14.722-29.124-22.085-51.883-22.085H1114.963z"/>
</g>
<rect x="-615.499" y="-803.5" transform="matrix(0.7071 -0.7071 0.7071 0.7071 306.6989 -474.563)" fill="#C0392B" width="392" height="392"/>
</svg>
